<mxfile host="Electron" modified="2023-10-22T06:47:45.213Z" agent="Mozilla/5.0 (Macintosh; Intel Mac OS X 10_15_7) AppleWebKit/537.36 (KHTML, like Gecko) draw.io/22.0.2 Chrome/114.0.5735.289 Electron/25.8.4 Safari/537.36" etag="EwFtww6kZudCH21egpD2" version="22.0.2" type="device">
  <diagram name="Page-1" id="e7e014a7-5840-1c2e-5031-d8a46d1fe8dd">
    <mxGraphModel dx="1640" dy="1202" grid="1" gridSize="10" guides="1" tooltips="1" connect="1" arrows="1" fold="1" page="1" pageScale="1" pageWidth="1169" pageHeight="826" background="none" math="0" shadow="0">
      <root>
        <mxCell id="0" />
        <mxCell id="1" parent="0" />
        <mxCell id="2" value="Thread 1" style="swimlane;whiteSpace=wrap;dashed=1;" parent="1" vertex="1">
          <mxGeometry x="150" y="120" width="280" height="600" as="geometry" />
        </mxCell>
        <mxCell id="VFjGbGDu0NdSBgMi_28u-54" value="预提表" style="shape=note;whiteSpace=wrap;html=1;backgroundOutline=1;darkOpacity=0.05;fontSize=16;size=11;" vertex="1" parent="2">
          <mxGeometry x="100" y="100" width="80" height="40" as="geometry" />
        </mxCell>
        <mxCell id="VFjGbGDu0NdSBgMi_28u-89" value="input" style="shape=note;whiteSpace=wrap;html=1;backgroundOutline=1;darkOpacity=0.05;fontSize=16;size=11;" vertex="1" parent="2">
          <mxGeometry x="100" y="450" width="80" height="40" as="geometry" />
        </mxCell>
        <mxCell id="3" value="Thread 2" style="swimlane;whiteSpace=wrap;dashed=1;" parent="1" vertex="1">
          <mxGeometry x="440" y="120" width="280" height="600" as="geometry" />
        </mxCell>
        <mxCell id="VFjGbGDu0NdSBgMi_28u-49" style="edgeStyle=none;curved=1;rounded=0;orthogonalLoop=1;jettySize=auto;html=1;fontSize=12;startSize=4;endSize=4;" edge="1" parent="3" source="VFjGbGDu0NdSBgMi_28u-42" target="VFjGbGDu0NdSBgMi_28u-47">
          <mxGeometry relative="1" as="geometry" />
        </mxCell>
        <mxCell id="VFjGbGDu0NdSBgMi_28u-42" value="IDC_path" style="swimlane;fontStyle=0;childLayout=stackLayout;horizontal=1;startSize=20;fillColor=none;horizontalStack=0;resizeParent=1;resizeParentMax=0;resizeLast=0;collapsible=1;marginBottom=0;whiteSpace=wrap;html=1;fontSize=16;" vertex="1" parent="3">
          <mxGeometry x="80" y="260" width="120" height="60" as="geometry" />
        </mxCell>
        <mxCell id="VFjGbGDu0NdSBgMi_28u-43" value="idc_path()" style="text;strokeColor=none;fillColor=none;align=left;verticalAlign=top;spacingLeft=4;spacingRight=4;overflow=hidden;rotatable=0;points=[[0,0.5],[1,0.5]];portConstraint=eastwest;whiteSpace=wrap;html=1;fontSize=16;" vertex="1" parent="VFjGbGDu0NdSBgMi_28u-42">
          <mxGeometry y="20" width="120" height="40" as="geometry" />
        </mxCell>
        <mxCell id="VFjGbGDu0NdSBgMi_28u-47" value="load_data" style="swimlane;fontStyle=0;childLayout=stackLayout;horizontal=1;startSize=20;fillColor=none;horizontalStack=0;resizeParent=1;resizeParentMax=0;resizeLast=0;collapsible=1;marginBottom=0;whiteSpace=wrap;html=1;fontSize=16;" vertex="1" parent="3">
          <mxGeometry x="80" y="80" width="120" height="60" as="geometry" />
        </mxCell>
        <mxCell id="VFjGbGDu0NdSBgMi_28u-48" value="load_accurd()" style="text;strokeColor=none;fillColor=none;align=left;verticalAlign=top;spacingLeft=4;spacingRight=4;overflow=hidden;rotatable=0;points=[[0,0.5],[1,0.5]];portConstraint=eastwest;whiteSpace=wrap;html=1;fontSize=16;" vertex="1" parent="VFjGbGDu0NdSBgMi_28u-47">
          <mxGeometry y="20" width="120" height="40" as="geometry" />
        </mxCell>
        <mxCell id="VFjGbGDu0NdSBgMi_28u-56" value="xls_2_xlsx" style="swimlane;fontStyle=0;childLayout=stackLayout;horizontal=1;startSize=20;fillColor=none;horizontalStack=0;resizeParent=1;resizeParentMax=0;resizeLast=0;collapsible=1;marginBottom=0;whiteSpace=wrap;html=1;fontSize=16;" vertex="1" parent="3">
          <mxGeometry x="80" y="420" width="120" height="80" as="geometry">
            <mxRectangle x="40" y="360" width="110" height="30" as="alternateBounds" />
          </mxGeometry>
        </mxCell>
        <mxCell id="VFjGbGDu0NdSBgMi_28u-57" value="xls_2_xlsx&lt;br&gt;xls_2_xlsx_2" style="text;strokeColor=none;fillColor=none;align=left;verticalAlign=top;spacingLeft=4;spacingRight=4;overflow=hidden;rotatable=0;points=[[0,0.5],[1,0.5]];portConstraint=eastwest;whiteSpace=wrap;html=1;fontSize=16;" vertex="1" parent="VFjGbGDu0NdSBgMi_28u-56">
          <mxGeometry y="20" width="120" height="60" as="geometry" />
        </mxCell>
        <mxCell id="VFjGbGDu0NdSBgMi_28u-58" style="edgeStyle=none;curved=1;rounded=0;orthogonalLoop=1;jettySize=auto;html=1;fontSize=12;startSize=4;endSize=4;" edge="1" parent="3" source="VFjGbGDu0NdSBgMi_28u-42" target="VFjGbGDu0NdSBgMi_28u-56">
          <mxGeometry relative="1" as="geometry" />
        </mxCell>
        <mxCell id="4" value="Thread 3" style="swimlane;whiteSpace=wrap;dashed=1;" parent="1" vertex="1">
          <mxGeometry x="730" y="120" width="300" height="600" as="geometry" />
        </mxCell>
        <mxCell id="VFjGbGDu0NdSBgMi_28u-59" value="match_acc_exp" style="swimlane;fontStyle=0;childLayout=stackLayout;horizontal=1;startSize=20;fillColor=none;horizontalStack=0;resizeParent=1;resizeParentMax=0;resizeLast=0;collapsible=1;marginBottom=0;whiteSpace=wrap;html=1;fontSize=16;" vertex="1" parent="4">
          <mxGeometry x="40" y="60" width="200" height="100" as="geometry">
            <mxRectangle x="40" y="80" width="110" height="30" as="alternateBounds" />
          </mxGeometry>
        </mxCell>
        <mxCell id="VFjGbGDu0NdSBgMi_28u-60" value="match_normal&lt;br&gt;match_change&lt;br&gt;start_match" style="text;strokeColor=none;fillColor=none;align=left;verticalAlign=top;spacingLeft=4;spacingRight=4;overflow=hidden;rotatable=0;points=[[0,0.5],[1,0.5]];portConstraint=eastwest;whiteSpace=wrap;html=1;fontSize=16;" vertex="1" parent="VFjGbGDu0NdSBgMi_28u-59">
          <mxGeometry y="20" width="200" height="80" as="geometry" />
        </mxCell>
        <mxCell id="VFjGbGDu0NdSBgMi_28u-80" style="edgeStyle=none;curved=1;rounded=0;orthogonalLoop=1;jettySize=auto;html=1;exitX=0.5;exitY=0;exitDx=0;exitDy=0;fontSize=12;startSize=8;endSize=8;" edge="1" parent="4" source="VFjGbGDu0NdSBgMi_28u-64" target="VFjGbGDu0NdSBgMi_28u-73">
          <mxGeometry relative="1" as="geometry" />
        </mxCell>
        <mxCell id="VFjGbGDu0NdSBgMi_28u-64" value="formatted" style="swimlane;fontStyle=0;childLayout=stackLayout;horizontal=1;startSize=20;fillColor=none;horizontalStack=0;resizeParent=1;resizeParentMax=0;resizeLast=0;collapsible=1;marginBottom=0;whiteSpace=wrap;html=1;fontSize=16;" vertex="1" parent="4">
          <mxGeometry x="40" y="440" width="200" height="100" as="geometry">
            <mxRectangle x="40" y="320" width="110" height="30" as="alternateBounds" />
          </mxGeometry>
        </mxCell>
        <mxCell id="VFjGbGDu0NdSBgMi_28u-65" value="formatted_accured_data()&lt;br&gt;formatted_bandwith()&lt;br&gt;formatted_no_bandwith()" style="text;strokeColor=none;fillColor=none;align=left;verticalAlign=top;spacingLeft=4;spacingRight=4;overflow=hidden;rotatable=0;points=[[0,0.5],[1,0.5]];portConstraint=eastwest;whiteSpace=wrap;html=1;fontSize=16;" vertex="1" parent="VFjGbGDu0NdSBgMi_28u-64">
          <mxGeometry y="20" width="200" height="80" as="geometry" />
        </mxCell>
        <mxCell id="VFjGbGDu0NdSBgMi_28u-72" value="generate_base" style="swimlane;fontStyle=0;childLayout=stackLayout;horizontal=1;startSize=20;fillColor=none;horizontalStack=0;resizeParent=1;resizeParentMax=0;resizeLast=0;collapsible=1;marginBottom=0;whiteSpace=wrap;html=1;fontSize=16;" vertex="1" parent="4">
          <mxGeometry x="40" y="240" width="200" height="100" as="geometry">
            <mxRectangle x="40" y="80" width="110" height="30" as="alternateBounds" />
          </mxGeometry>
        </mxCell>
        <mxCell id="VFjGbGDu0NdSBgMi_28u-73" value="match_normal&lt;br&gt;match_change&lt;br&gt;start_match" style="text;strokeColor=none;fillColor=none;align=left;verticalAlign=top;spacingLeft=4;spacingRight=4;overflow=hidden;rotatable=0;points=[[0,0.5],[1,0.5]];portConstraint=eastwest;whiteSpace=wrap;html=1;fontSize=16;" vertex="1" parent="VFjGbGDu0NdSBgMi_28u-72">
          <mxGeometry y="20" width="200" height="80" as="geometry" />
        </mxCell>
        <mxCell id="VFjGbGDu0NdSBgMi_28u-55" style="edgeStyle=none;curved=1;rounded=0;orthogonalLoop=1;jettySize=auto;html=1;fontSize=12;startSize=4;endSize=4;entryX=0;entryY=0.5;entryDx=0;entryDy=0;" edge="1" parent="1" source="VFjGbGDu0NdSBgMi_28u-54" target="VFjGbGDu0NdSBgMi_28u-48">
          <mxGeometry relative="1" as="geometry" />
        </mxCell>
        <mxCell id="VFjGbGDu0NdSBgMi_28u-67" style="rounded=0;orthogonalLoop=1;jettySize=auto;html=1;exitX=1;exitY=0.5;exitDx=0;exitDy=0;entryX=0;entryY=0.5;entryDx=0;entryDy=0;fontSize=12;startSize=4;endSize=4;" edge="1" parent="1" source="VFjGbGDu0NdSBgMi_28u-43" target="VFjGbGDu0NdSBgMi_28u-65">
          <mxGeometry relative="1" as="geometry" />
        </mxCell>
        <mxCell id="VFjGbGDu0NdSBgMi_28u-68" style="rounded=0;orthogonalLoop=1;jettySize=auto;html=1;exitX=1;exitY=0.5;exitDx=0;exitDy=0;entryX=0;entryY=0.5;entryDx=0;entryDy=0;fontSize=12;startSize=4;endSize=4;" edge="1" parent="1" source="VFjGbGDu0NdSBgMi_28u-48" target="VFjGbGDu0NdSBgMi_28u-60">
          <mxGeometry relative="1" as="geometry" />
        </mxCell>
        <mxCell id="VFjGbGDu0NdSBgMi_28u-69" style="rounded=0;orthogonalLoop=1;jettySize=auto;html=1;exitX=1;exitY=0.5;exitDx=0;exitDy=0;entryX=0;entryY=0.5;entryDx=0;entryDy=0;fontSize=12;startSize=4;endSize=4;" edge="1" parent="1" source="VFjGbGDu0NdSBgMi_28u-43" target="VFjGbGDu0NdSBgMi_28u-60">
          <mxGeometry relative="1" as="geometry" />
        </mxCell>
        <mxCell id="VFjGbGDu0NdSBgMi_28u-70" style="rounded=0;orthogonalLoop=1;jettySize=auto;html=1;exitX=1;exitY=0.5;exitDx=0;exitDy=0;fontSize=12;startSize=4;endSize=4;entryX=0;entryY=0.5;entryDx=0;entryDy=0;elbow=vertical;" edge="1" parent="1" source="VFjGbGDu0NdSBgMi_28u-57" target="VFjGbGDu0NdSBgMi_28u-60">
          <mxGeometry relative="1" as="geometry">
            <mxPoint x="770" y="400" as="targetPoint" />
          </mxGeometry>
        </mxCell>
        <mxCell id="VFjGbGDu0NdSBgMi_28u-71" value="Thread 4" style="swimlane;whiteSpace=wrap;dashed=1;" vertex="1" parent="1">
          <mxGeometry x="1040" y="120" width="300" height="600" as="geometry" />
        </mxCell>
        <mxCell id="VFjGbGDu0NdSBgMi_28u-81" value="GUI" style="html=1;whiteSpace=wrap;fontSize=16;" vertex="1" parent="VFjGbGDu0NdSBgMi_28u-71">
          <mxGeometry x="95" y="280" width="110" height="40" as="geometry" />
        </mxCell>
        <mxCell id="VFjGbGDu0NdSBgMi_28u-87" value="ouput" style="shape=note;whiteSpace=wrap;html=1;backgroundOutline=1;darkOpacity=0.05;fontSize=16;size=11;" vertex="1" parent="VFjGbGDu0NdSBgMi_28u-71">
          <mxGeometry x="110" y="410" width="80" height="40" as="geometry" />
        </mxCell>
        <mxCell id="VFjGbGDu0NdSBgMi_28u-88" style="edgeStyle=none;curved=1;rounded=0;orthogonalLoop=1;jettySize=auto;html=1;entryX=0.5;entryY=0;entryDx=0;entryDy=0;entryPerimeter=0;fontSize=12;startSize=8;endSize=8;" edge="1" parent="VFjGbGDu0NdSBgMi_28u-71" source="VFjGbGDu0NdSBgMi_28u-81" target="VFjGbGDu0NdSBgMi_28u-87">
          <mxGeometry relative="1" as="geometry" />
        </mxCell>
        <mxCell id="VFjGbGDu0NdSBgMi_28u-76" style="edgeStyle=none;curved=1;rounded=0;orthogonalLoop=1;jettySize=auto;html=1;exitX=1;exitY=0.5;exitDx=0;exitDy=0;entryX=0;entryY=0.5;entryDx=0;entryDy=0;fontSize=12;startSize=8;endSize=8;" edge="1" parent="1" source="VFjGbGDu0NdSBgMi_28u-43" target="VFjGbGDu0NdSBgMi_28u-73">
          <mxGeometry relative="1" as="geometry" />
        </mxCell>
        <mxCell id="VFjGbGDu0NdSBgMi_28u-82" style="edgeStyle=none;curved=1;rounded=0;orthogonalLoop=1;jettySize=auto;html=1;exitX=1;exitY=0.5;exitDx=0;exitDy=0;entryX=0;entryY=0.5;entryDx=0;entryDy=0;fontSize=12;startSize=8;endSize=8;" edge="1" parent="1" source="VFjGbGDu0NdSBgMi_28u-57" target="VFjGbGDu0NdSBgMi_28u-81">
          <mxGeometry relative="1" as="geometry" />
        </mxCell>
        <mxCell id="VFjGbGDu0NdSBgMi_28u-83" style="edgeStyle=none;curved=1;rounded=0;orthogonalLoop=1;jettySize=auto;html=1;exitX=1;exitY=0.5;exitDx=0;exitDy=0;entryX=0;entryY=0.5;entryDx=0;entryDy=0;fontSize=12;startSize=8;endSize=8;" edge="1" parent="1" source="VFjGbGDu0NdSBgMi_28u-73" target="VFjGbGDu0NdSBgMi_28u-81">
          <mxGeometry relative="1" as="geometry" />
        </mxCell>
        <mxCell id="VFjGbGDu0NdSBgMi_28u-84" style="edgeStyle=none;curved=1;rounded=0;orthogonalLoop=1;jettySize=auto;html=1;exitX=1;exitY=0.5;exitDx=0;exitDy=0;entryX=0;entryY=0.5;entryDx=0;entryDy=0;fontSize=12;startSize=8;endSize=8;" edge="1" parent="1" source="VFjGbGDu0NdSBgMi_28u-60" target="VFjGbGDu0NdSBgMi_28u-81">
          <mxGeometry relative="1" as="geometry" />
        </mxCell>
        <mxCell id="VFjGbGDu0NdSBgMi_28u-91" style="edgeStyle=none;curved=1;rounded=0;orthogonalLoop=1;jettySize=auto;html=1;entryX=0;entryY=0.5;entryDx=0;entryDy=0;fontSize=12;startSize=8;endSize=8;" edge="1" parent="1" source="VFjGbGDu0NdSBgMi_28u-89" target="VFjGbGDu0NdSBgMi_28u-57">
          <mxGeometry relative="1" as="geometry" />
        </mxCell>
      </root>
    </mxGraphModel>
  </diagram>
</mxfile>
